<mxfile host="app.diagrams.net" modified="2023-05-17T14:12:37.876Z" agent="Mozilla/5.0 (Windows NT 10.0; Win64; x64) AppleWebKit/537.36 (KHTML, like Gecko) Chrome/113.0.0.0 Safari/537.36" etag="5l_GkYREB3LoLdArVMLE" version="21.3.2" type="device">
  <diagram name="Page-1" id="eE6Y34a1nh0OyGi9z92K">
    <mxGraphModel dx="2819" dy="981" grid="1" gridSize="10" guides="1" tooltips="1" connect="1" arrows="1" fold="1" page="1" pageScale="1" pageWidth="850" pageHeight="1100" math="0" shadow="0">
      <root>
        <mxCell id="0" />
        <mxCell id="1" parent="0" />
        <mxCell id="nhN6npJ32NeFvKuplFAH-2" style="edgeStyle=orthogonalEdgeStyle;rounded=0;orthogonalLoop=1;jettySize=auto;html=1;" edge="1" parent="1" source="VBHdJpqmcUHROEPq99Gw-1" target="VBHdJpqmcUHROEPq99Gw-34">
          <mxGeometry relative="1" as="geometry" />
        </mxCell>
        <mxCell id="VBHdJpqmcUHROEPq99Gw-1" value="Role" style="rounded=1;whiteSpace=wrap;html=1;" parent="1" vertex="1">
          <mxGeometry x="-680" y="220" width="120" height="60" as="geometry" />
        </mxCell>
        <mxCell id="nhN6npJ32NeFvKuplFAH-3" style="edgeStyle=orthogonalEdgeStyle;rounded=0;orthogonalLoop=1;jettySize=auto;html=1;" edge="1" parent="1" source="VBHdJpqmcUHROEPq99Gw-2" target="VBHdJpqmcUHROEPq99Gw-34">
          <mxGeometry relative="1" as="geometry" />
        </mxCell>
        <mxCell id="VBHdJpqmcUHROEPq99Gw-2" value="Nama Pengguna" style="ellipse;whiteSpace=wrap;html=1;" parent="1" vertex="1">
          <mxGeometry x="-820" y="470" width="120" height="60" as="geometry" />
        </mxCell>
        <mxCell id="nhN6npJ32NeFvKuplFAH-4" style="edgeStyle=orthogonalEdgeStyle;rounded=0;orthogonalLoop=1;jettySize=auto;html=1;" edge="1" parent="1" source="VBHdJpqmcUHROEPq99Gw-3" target="VBHdJpqmcUHROEPq99Gw-34">
          <mxGeometry relative="1" as="geometry" />
        </mxCell>
        <mxCell id="VBHdJpqmcUHROEPq99Gw-3" value="Kata Sandi" style="ellipse;whiteSpace=wrap;html=1;" parent="1" vertex="1">
          <mxGeometry x="-830" y="570" width="120" height="60" as="geometry" />
        </mxCell>
        <mxCell id="nhN6npJ32NeFvKuplFAH-5" style="edgeStyle=orthogonalEdgeStyle;rounded=0;orthogonalLoop=1;jettySize=auto;html=1;" edge="1" parent="1" source="VBHdJpqmcUHROEPq99Gw-21" target="VBHdJpqmcUHROEPq99Gw-34">
          <mxGeometry relative="1" as="geometry" />
        </mxCell>
        <mxCell id="VBHdJpqmcUHROEPq99Gw-21" value="Terakhir Login" style="ellipse;whiteSpace=wrap;html=1;" parent="1" vertex="1">
          <mxGeometry x="-820" y="670" width="120" height="60" as="geometry" />
        </mxCell>
        <mxCell id="nhN6npJ32NeFvKuplFAH-9" style="edgeStyle=orthogonalEdgeStyle;rounded=0;orthogonalLoop=1;jettySize=auto;html=1;entryX=0;entryY=0.25;entryDx=0;entryDy=0;" edge="1" parent="1" source="VBHdJpqmcUHROEPq99Gw-34" target="VBHdJpqmcUHROEPq99Gw-140">
          <mxGeometry relative="1" as="geometry" />
        </mxCell>
        <mxCell id="nhN6npJ32NeFvKuplFAH-19" style="edgeStyle=orthogonalEdgeStyle;rounded=0;orthogonalLoop=1;jettySize=auto;html=1;" edge="1" parent="1" source="VBHdJpqmcUHROEPq99Gw-34" target="VBHdJpqmcUHROEPq99Gw-42">
          <mxGeometry relative="1" as="geometry" />
        </mxCell>
        <mxCell id="nhN6npJ32NeFvKuplFAH-22" style="edgeStyle=orthogonalEdgeStyle;rounded=0;orthogonalLoop=1;jettySize=auto;html=1;entryX=0;entryY=0.75;entryDx=0;entryDy=0;" edge="1" parent="1" source="VBHdJpqmcUHROEPq99Gw-34" target="nhN6npJ32NeFvKuplFAH-20">
          <mxGeometry relative="1" as="geometry" />
        </mxCell>
        <mxCell id="VBHdJpqmcUHROEPq99Gw-34" value="Users" style="rhombus;whiteSpace=wrap;html=1;" parent="1" vertex="1">
          <mxGeometry x="-590" y="420" width="80" height="80" as="geometry" />
        </mxCell>
        <mxCell id="nhN6npJ32NeFvKuplFAH-1" style="edgeStyle=orthogonalEdgeStyle;rounded=0;orthogonalLoop=1;jettySize=auto;html=1;" edge="1" parent="1" source="VBHdJpqmcUHROEPq99Gw-35" target="VBHdJpqmcUHROEPq99Gw-1">
          <mxGeometry relative="1" as="geometry" />
        </mxCell>
        <mxCell id="VBHdJpqmcUHROEPq99Gw-35" value="Nama Peran" style="ellipse;whiteSpace=wrap;html=1;" parent="1" vertex="1">
          <mxGeometry x="-800" y="80" width="120" height="60" as="geometry" />
        </mxCell>
        <mxCell id="nhN6npJ32NeFvKuplFAH-31" style="edgeStyle=orthogonalEdgeStyle;rounded=0;orthogonalLoop=1;jettySize=auto;html=1;entryX=0.426;entryY=-0.014;entryDx=0;entryDy=0;entryPerimeter=0;" edge="1" parent="1" source="VBHdJpqmcUHROEPq99Gw-42" target="VBHdJpqmcUHROEPq99Gw-115">
          <mxGeometry relative="1" as="geometry" />
        </mxCell>
        <mxCell id="nhN6npJ32NeFvKuplFAH-32" style="edgeStyle=orthogonalEdgeStyle;rounded=0;orthogonalLoop=1;jettySize=auto;html=1;" edge="1" parent="1" source="VBHdJpqmcUHROEPq99Gw-42" target="nhN6npJ32NeFvKuplFAH-6">
          <mxGeometry relative="1" as="geometry" />
        </mxCell>
        <mxCell id="nhN6npJ32NeFvKuplFAH-40" style="edgeStyle=orthogonalEdgeStyle;rounded=0;orthogonalLoop=1;jettySize=auto;html=1;" edge="1" parent="1" source="VBHdJpqmcUHROEPq99Gw-42" target="nhN6npJ32NeFvKuplFAH-34">
          <mxGeometry relative="1" as="geometry" />
        </mxCell>
        <mxCell id="VBHdJpqmcUHROEPq99Gw-42" value="Siswa" style="rounded=1;whiteSpace=wrap;html=1;" parent="1" vertex="1">
          <mxGeometry x="-260" y="350" width="120" height="60" as="geometry" />
        </mxCell>
        <mxCell id="VBHdJpqmcUHROEPq99Gw-96" value="Sarana" style="rounded=1;whiteSpace=wrap;html=1;" parent="1" vertex="1">
          <mxGeometry x="580" y="240" width="120" height="60" as="geometry" />
        </mxCell>
        <mxCell id="VBHdJpqmcUHROEPq99Gw-102" style="edgeStyle=orthogonalEdgeStyle;rounded=0;orthogonalLoop=1;jettySize=auto;html=1;" parent="1" source="VBHdJpqmcUHROEPq99Gw-98" target="VBHdJpqmcUHROEPq99Gw-96" edge="1">
          <mxGeometry relative="1" as="geometry">
            <Array as="points">
              <mxPoint x="715" y="110" />
              <mxPoint x="715" y="170" />
            </Array>
          </mxGeometry>
        </mxCell>
        <mxCell id="VBHdJpqmcUHROEPq99Gw-98" value="Nama Sarana" style="ellipse;whiteSpace=wrap;html=1;" parent="1" vertex="1">
          <mxGeometry x="480" y="20" width="120" height="60" as="geometry" />
        </mxCell>
        <mxCell id="VBHdJpqmcUHROEPq99Gw-103" style="edgeStyle=orthogonalEdgeStyle;rounded=0;orthogonalLoop=1;jettySize=auto;html=1;" parent="1" source="VBHdJpqmcUHROEPq99Gw-99" target="VBHdJpqmcUHROEPq99Gw-96" edge="1">
          <mxGeometry relative="1" as="geometry" />
        </mxCell>
        <mxCell id="VBHdJpqmcUHROEPq99Gw-99" value="Keterangan" style="ellipse;whiteSpace=wrap;html=1;" parent="1" vertex="1">
          <mxGeometry x="480" y="120" width="120" height="60" as="geometry" />
        </mxCell>
        <mxCell id="VBHdJpqmcUHROEPq99Gw-105" style="edgeStyle=orthogonalEdgeStyle;rounded=0;orthogonalLoop=1;jettySize=auto;html=1;" parent="1" source="VBHdJpqmcUHROEPq99Gw-100" target="VBHdJpqmcUHROEPq99Gw-96" edge="1">
          <mxGeometry relative="1" as="geometry" />
        </mxCell>
        <mxCell id="VBHdJpqmcUHROEPq99Gw-100" value="Ketersediaan" style="ellipse;whiteSpace=wrap;html=1;" parent="1" vertex="1">
          <mxGeometry x="750" y="140" width="120" height="60" as="geometry" />
        </mxCell>
        <mxCell id="VBHdJpqmcUHROEPq99Gw-104" style="edgeStyle=orthogonalEdgeStyle;rounded=0;orthogonalLoop=1;jettySize=auto;html=1;" parent="1" source="VBHdJpqmcUHROEPq99Gw-101" target="VBHdJpqmcUHROEPq99Gw-96" edge="1">
          <mxGeometry relative="1" as="geometry" />
        </mxCell>
        <mxCell id="VBHdJpqmcUHROEPq99Gw-101" value="Lokasi" style="ellipse;whiteSpace=wrap;html=1;" parent="1" vertex="1">
          <mxGeometry x="730" y="30" width="120" height="60" as="geometry" />
        </mxCell>
        <mxCell id="VBHdJpqmcUHROEPq99Gw-106" value="Berita" style="rounded=1;whiteSpace=wrap;html=1;" parent="1" vertex="1">
          <mxGeometry x="-210" y="890" width="120" height="60" as="geometry" />
        </mxCell>
        <mxCell id="VBHdJpqmcUHROEPq99Gw-111" style="edgeStyle=orthogonalEdgeStyle;rounded=0;orthogonalLoop=1;jettySize=auto;html=1;" parent="1" source="VBHdJpqmcUHROEPq99Gw-108" target="VBHdJpqmcUHROEPq99Gw-106" edge="1">
          <mxGeometry relative="1" as="geometry" />
        </mxCell>
        <mxCell id="VBHdJpqmcUHROEPq99Gw-108" value="Judul" style="ellipse;whiteSpace=wrap;html=1;" parent="1" vertex="1">
          <mxGeometry x="20" y="900" width="120" height="60" as="geometry" />
        </mxCell>
        <mxCell id="VBHdJpqmcUHROEPq99Gw-112" style="edgeStyle=orthogonalEdgeStyle;rounded=0;orthogonalLoop=1;jettySize=auto;html=1;entryX=0.75;entryY=1;entryDx=0;entryDy=0;" parent="1" source="VBHdJpqmcUHROEPq99Gw-109" target="VBHdJpqmcUHROEPq99Gw-106" edge="1">
          <mxGeometry relative="1" as="geometry" />
        </mxCell>
        <mxCell id="VBHdJpqmcUHROEPq99Gw-109" value="Isi Berita" style="ellipse;whiteSpace=wrap;html=1;" parent="1" vertex="1">
          <mxGeometry x="-70" y="970" width="120" height="60" as="geometry" />
        </mxCell>
        <mxCell id="VBHdJpqmcUHROEPq99Gw-114" style="edgeStyle=orthogonalEdgeStyle;rounded=0;orthogonalLoop=1;jettySize=auto;html=1;entryX=0.4;entryY=1;entryDx=0;entryDy=0;entryPerimeter=0;" parent="1" source="VBHdJpqmcUHROEPq99Gw-110" target="VBHdJpqmcUHROEPq99Gw-106" edge="1">
          <mxGeometry relative="1" as="geometry" />
        </mxCell>
        <mxCell id="VBHdJpqmcUHROEPq99Gw-110" value="Tanggal" style="ellipse;whiteSpace=wrap;html=1;" parent="1" vertex="1">
          <mxGeometry x="-210" y="1020" width="120" height="60" as="geometry" />
        </mxCell>
        <mxCell id="VBHdJpqmcUHROEPq99Gw-119" style="edgeStyle=orthogonalEdgeStyle;rounded=0;orthogonalLoop=1;jettySize=auto;html=1;" parent="1" source="VBHdJpqmcUHROEPq99Gw-115" target="VBHdJpqmcUHROEPq99Gw-116" edge="1">
          <mxGeometry relative="1" as="geometry" />
        </mxCell>
        <mxCell id="VBHdJpqmcUHROEPq99Gw-120" style="edgeStyle=orthogonalEdgeStyle;rounded=0;orthogonalLoop=1;jettySize=auto;html=1;" parent="1" source="VBHdJpqmcUHROEPq99Gw-115" target="VBHdJpqmcUHROEPq99Gw-117" edge="1">
          <mxGeometry relative="1" as="geometry" />
        </mxCell>
        <mxCell id="VBHdJpqmcUHROEPq99Gw-115" value="Ekstrakulikuler" style="rounded=1;whiteSpace=wrap;html=1;" parent="1" vertex="1">
          <mxGeometry x="195" y="580" width="120" height="60" as="geometry" />
        </mxCell>
        <mxCell id="VBHdJpqmcUHROEPq99Gw-116" value="Nama Ekstrakulikuler" style="ellipse;whiteSpace=wrap;html=1;" parent="1" vertex="1">
          <mxGeometry x="75" y="750" width="120" height="60" as="geometry" />
        </mxCell>
        <mxCell id="VBHdJpqmcUHROEPq99Gw-117" value="Deskripsi" style="ellipse;whiteSpace=wrap;html=1;" parent="1" vertex="1">
          <mxGeometry x="250" y="750" width="120" height="60" as="geometry" />
        </mxCell>
        <mxCell id="nhN6npJ32NeFvKuplFAH-13" style="edgeStyle=orthogonalEdgeStyle;rounded=0;orthogonalLoop=1;jettySize=auto;html=1;" edge="1" parent="1" source="VBHdJpqmcUHROEPq99Gw-121" target="VBHdJpqmcUHROEPq99Gw-42">
          <mxGeometry relative="1" as="geometry" />
        </mxCell>
        <mxCell id="VBHdJpqmcUHROEPq99Gw-121" value="Nama Siswa" style="ellipse;whiteSpace=wrap;html=1;" parent="1" vertex="1">
          <mxGeometry x="-425" y="540" width="120" height="60" as="geometry" />
        </mxCell>
        <mxCell id="nhN6npJ32NeFvKuplFAH-15" style="edgeStyle=orthogonalEdgeStyle;rounded=0;orthogonalLoop=1;jettySize=auto;html=1;" edge="1" parent="1" source="VBHdJpqmcUHROEPq99Gw-122" target="VBHdJpqmcUHROEPq99Gw-42">
          <mxGeometry relative="1" as="geometry" />
        </mxCell>
        <mxCell id="VBHdJpqmcUHROEPq99Gw-122" value="Tanggal Lahir" style="ellipse;whiteSpace=wrap;html=1;" parent="1" vertex="1">
          <mxGeometry x="-450" y="640" width="120" height="60" as="geometry" />
        </mxCell>
        <mxCell id="nhN6npJ32NeFvKuplFAH-14" style="edgeStyle=orthogonalEdgeStyle;rounded=0;orthogonalLoop=1;jettySize=auto;html=1;" edge="1" parent="1" source="VBHdJpqmcUHROEPq99Gw-123" target="VBHdJpqmcUHROEPq99Gw-42">
          <mxGeometry relative="1" as="geometry" />
        </mxCell>
        <mxCell id="VBHdJpqmcUHROEPq99Gw-123" value="Alamat" style="ellipse;whiteSpace=wrap;html=1;" parent="1" vertex="1">
          <mxGeometry x="-130" y="510" width="120" height="60" as="geometry" />
        </mxCell>
        <mxCell id="nhN6npJ32NeFvKuplFAH-16" style="edgeStyle=orthogonalEdgeStyle;rounded=0;orthogonalLoop=1;jettySize=auto;html=1;" edge="1" parent="1" source="VBHdJpqmcUHROEPq99Gw-124" target="VBHdJpqmcUHROEPq99Gw-42">
          <mxGeometry relative="1" as="geometry" />
        </mxCell>
        <mxCell id="VBHdJpqmcUHROEPq99Gw-124" value="Jenis Kelamin" style="ellipse;whiteSpace=wrap;html=1;" parent="1" vertex="1">
          <mxGeometry x="-120" y="600" width="120" height="60" as="geometry" />
        </mxCell>
        <mxCell id="nhN6npJ32NeFvKuplFAH-18" style="edgeStyle=orthogonalEdgeStyle;rounded=0;orthogonalLoop=1;jettySize=auto;html=1;" edge="1" parent="1" source="VBHdJpqmcUHROEPq99Gw-125" target="VBHdJpqmcUHROEPq99Gw-42">
          <mxGeometry relative="1" as="geometry" />
        </mxCell>
        <mxCell id="VBHdJpqmcUHROEPq99Gw-125" value="Nomer Telepon" style="ellipse;whiteSpace=wrap;html=1;" parent="1" vertex="1">
          <mxGeometry x="-120" y="680" width="120" height="60" as="geometry" />
        </mxCell>
        <mxCell id="nhN6npJ32NeFvKuplFAH-17" style="edgeStyle=orthogonalEdgeStyle;rounded=0;orthogonalLoop=1;jettySize=auto;html=1;" edge="1" parent="1" source="VBHdJpqmcUHROEPq99Gw-126" target="VBHdJpqmcUHROEPq99Gw-42">
          <mxGeometry relative="1" as="geometry" />
        </mxCell>
        <mxCell id="VBHdJpqmcUHROEPq99Gw-126" value="Email" style="ellipse;whiteSpace=wrap;html=1;" parent="1" vertex="1">
          <mxGeometry x="-440" y="720" width="120" height="60" as="geometry" />
        </mxCell>
        <mxCell id="nhN6npJ32NeFvKuplFAH-28" style="edgeStyle=orthogonalEdgeStyle;rounded=0;orthogonalLoop=1;jettySize=auto;html=1;" edge="1" parent="1" source="VBHdJpqmcUHROEPq99Gw-135" target="nhN6npJ32NeFvKuplFAH-6">
          <mxGeometry relative="1" as="geometry" />
        </mxCell>
        <mxCell id="VBHdJpqmcUHROEPq99Gw-135" value="Nama Kelas" style="ellipse;whiteSpace=wrap;html=1;" parent="1" vertex="1">
          <mxGeometry x="280" y="90" width="120" height="60" as="geometry" />
        </mxCell>
        <mxCell id="nhN6npJ32NeFvKuplFAH-27" style="edgeStyle=orthogonalEdgeStyle;rounded=0;orthogonalLoop=1;jettySize=auto;html=1;" edge="1" parent="1" source="VBHdJpqmcUHROEPq99Gw-140" target="nhN6npJ32NeFvKuplFAH-6">
          <mxGeometry relative="1" as="geometry" />
        </mxCell>
        <mxCell id="VBHdJpqmcUHROEPq99Gw-140" value="Guru" style="rounded=1;whiteSpace=wrap;html=1;" parent="1" vertex="1">
          <mxGeometry x="-280" y="250" width="120" height="60" as="geometry" />
        </mxCell>
        <mxCell id="VBHdJpqmcUHROEPq99Gw-158" style="edgeStyle=orthogonalEdgeStyle;rounded=0;orthogonalLoop=1;jettySize=auto;html=1;" parent="1" source="VBHdJpqmcUHROEPq99Gw-142" target="VBHdJpqmcUHROEPq99Gw-140" edge="1">
          <mxGeometry relative="1" as="geometry" />
        </mxCell>
        <mxCell id="VBHdJpqmcUHROEPq99Gw-142" value="Nama Guru" style="ellipse;whiteSpace=wrap;html=1;" parent="1" vertex="1">
          <mxGeometry x="-470" y="160" width="120" height="60" as="geometry" />
        </mxCell>
        <mxCell id="VBHdJpqmcUHROEPq99Gw-159" style="edgeStyle=orthogonalEdgeStyle;rounded=0;orthogonalLoop=1;jettySize=auto;html=1;" parent="1" source="VBHdJpqmcUHROEPq99Gw-143" target="VBHdJpqmcUHROEPq99Gw-140" edge="1">
          <mxGeometry relative="1" as="geometry" />
        </mxCell>
        <mxCell id="VBHdJpqmcUHROEPq99Gw-143" value="Mata Pelajaran" style="ellipse;whiteSpace=wrap;html=1;" parent="1" vertex="1">
          <mxGeometry x="-470" y="90" width="120" height="60" as="geometry" />
        </mxCell>
        <mxCell id="VBHdJpqmcUHROEPq99Gw-161" style="edgeStyle=orthogonalEdgeStyle;rounded=0;orthogonalLoop=1;jettySize=auto;html=1;" parent="1" source="VBHdJpqmcUHROEPq99Gw-144" target="VBHdJpqmcUHROEPq99Gw-140" edge="1">
          <mxGeometry relative="1" as="geometry" />
        </mxCell>
        <mxCell id="VBHdJpqmcUHROEPq99Gw-144" value="Jenis Kelamin" style="ellipse;whiteSpace=wrap;html=1;" parent="1" vertex="1">
          <mxGeometry x="-470" y="20" width="120" height="60" as="geometry" />
        </mxCell>
        <mxCell id="VBHdJpqmcUHROEPq99Gw-160" style="edgeStyle=orthogonalEdgeStyle;rounded=0;orthogonalLoop=1;jettySize=auto;html=1;" parent="1" source="VBHdJpqmcUHROEPq99Gw-145" target="VBHdJpqmcUHROEPq99Gw-140" edge="1">
          <mxGeometry relative="1" as="geometry" />
        </mxCell>
        <mxCell id="VBHdJpqmcUHROEPq99Gw-145" value="Alamat" style="ellipse;whiteSpace=wrap;html=1;" parent="1" vertex="1">
          <mxGeometry x="-130" y="90" width="120" height="60" as="geometry" />
        </mxCell>
        <mxCell id="VBHdJpqmcUHROEPq99Gw-162" style="edgeStyle=orthogonalEdgeStyle;rounded=0;orthogonalLoop=1;jettySize=auto;html=1;" parent="1" source="VBHdJpqmcUHROEPq99Gw-146" target="VBHdJpqmcUHROEPq99Gw-140" edge="1">
          <mxGeometry relative="1" as="geometry" />
        </mxCell>
        <mxCell id="VBHdJpqmcUHROEPq99Gw-146" value="Nomer Telepon" style="ellipse;whiteSpace=wrap;html=1;" parent="1" vertex="1">
          <mxGeometry x="-130" y="160" width="120" height="60" as="geometry" />
        </mxCell>
        <mxCell id="VBHdJpqmcUHROEPq99Gw-163" style="edgeStyle=orthogonalEdgeStyle;rounded=0;orthogonalLoop=1;jettySize=auto;html=1;" parent="1" source="VBHdJpqmcUHROEPq99Gw-149" target="VBHdJpqmcUHROEPq99Gw-140" edge="1">
          <mxGeometry relative="1" as="geometry" />
        </mxCell>
        <mxCell id="VBHdJpqmcUHROEPq99Gw-149" value="Image" style="ellipse;whiteSpace=wrap;html=1;" parent="1" vertex="1">
          <mxGeometry x="-120" y="20" width="120" height="60" as="geometry" />
        </mxCell>
        <mxCell id="nhN6npJ32NeFvKuplFAH-35" style="edgeStyle=orthogonalEdgeStyle;rounded=0;orthogonalLoop=1;jettySize=auto;html=1;" edge="1" parent="1" source="Kzk5fdHp1Nah6KUIn2JC-3" target="nhN6npJ32NeFvKuplFAH-34">
          <mxGeometry relative="1" as="geometry" />
        </mxCell>
        <mxCell id="Kzk5fdHp1Nah6KUIn2JC-3" value="Nilai" style="ellipse;whiteSpace=wrap;html=1;" parent="1" vertex="1">
          <mxGeometry x="520" y="670" width="120" height="60" as="geometry" />
        </mxCell>
        <mxCell id="nhN6npJ32NeFvKuplFAH-38" style="edgeStyle=orthogonalEdgeStyle;rounded=0;orthogonalLoop=1;jettySize=auto;html=1;entryX=1;entryY=0.5;entryDx=0;entryDy=0;" edge="1" parent="1" source="Kzk5fdHp1Nah6KUIn2JC-7" target="VBHdJpqmcUHROEPq99Gw-140">
          <mxGeometry relative="1" as="geometry" />
        </mxCell>
        <mxCell id="nhN6npJ32NeFvKuplFAH-39" style="edgeStyle=orthogonalEdgeStyle;rounded=0;orthogonalLoop=1;jettySize=auto;html=1;entryX=0.91;entryY=0.708;entryDx=0;entryDy=0;entryPerimeter=0;" edge="1" parent="1" source="Kzk5fdHp1Nah6KUIn2JC-7" target="nhN6npJ32NeFvKuplFAH-34">
          <mxGeometry relative="1" as="geometry" />
        </mxCell>
        <mxCell id="Kzk5fdHp1Nah6KUIn2JC-7" value="Mata Pelajaran" style="rounded=1;whiteSpace=wrap;html=1;" parent="1" vertex="1">
          <mxGeometry x="810" y="450" width="120" height="60" as="geometry" />
        </mxCell>
        <mxCell id="Kzk5fdHp1Nah6KUIn2JC-10" style="edgeStyle=orthogonalEdgeStyle;rounded=0;orthogonalLoop=1;jettySize=auto;html=1;" parent="1" source="Kzk5fdHp1Nah6KUIn2JC-9" target="Kzk5fdHp1Nah6KUIn2JC-7" edge="1">
          <mxGeometry relative="1" as="geometry" />
        </mxCell>
        <mxCell id="Kzk5fdHp1Nah6KUIn2JC-9" value="Nama Mata Pelajaran" style="ellipse;whiteSpace=wrap;html=1;" parent="1" vertex="1">
          <mxGeometry x="810" y="610" width="120" height="60" as="geometry" />
        </mxCell>
        <mxCell id="nhN6npJ32NeFvKuplFAH-6" value="Kelas" style="rounded=1;whiteSpace=wrap;html=1;" vertex="1" parent="1">
          <mxGeometry x="330" y="200" width="120" height="60" as="geometry" />
        </mxCell>
        <mxCell id="nhN6npJ32NeFvKuplFAH-25" style="edgeStyle=orthogonalEdgeStyle;rounded=0;orthogonalLoop=1;jettySize=auto;html=1;" edge="1" parent="1" source="nhN6npJ32NeFvKuplFAH-20" target="nhN6npJ32NeFvKuplFAH-24">
          <mxGeometry relative="1" as="geometry" />
        </mxCell>
        <mxCell id="nhN6npJ32NeFvKuplFAH-26" style="edgeStyle=orthogonalEdgeStyle;rounded=0;orthogonalLoop=1;jettySize=auto;html=1;" edge="1" parent="1" source="nhN6npJ32NeFvKuplFAH-20" target="nhN6npJ32NeFvKuplFAH-23">
          <mxGeometry relative="1" as="geometry" />
        </mxCell>
        <mxCell id="nhN6npJ32NeFvKuplFAH-30" style="edgeStyle=orthogonalEdgeStyle;rounded=0;orthogonalLoop=1;jettySize=auto;html=1;" edge="1" parent="1" source="nhN6npJ32NeFvKuplFAH-20" target="VBHdJpqmcUHROEPq99Gw-106">
          <mxGeometry relative="1" as="geometry" />
        </mxCell>
        <mxCell id="nhN6npJ32NeFvKuplFAH-20" value="Staff" style="rounded=1;whiteSpace=wrap;html=1;" vertex="1" parent="1">
          <mxGeometry x="-460" y="890" width="120" height="60" as="geometry" />
        </mxCell>
        <mxCell id="nhN6npJ32NeFvKuplFAH-23" value="Divisi" style="ellipse;whiteSpace=wrap;html=1;" vertex="1" parent="1">
          <mxGeometry x="-390" y="1000" width="120" height="60" as="geometry" />
        </mxCell>
        <mxCell id="nhN6npJ32NeFvKuplFAH-24" value="NIP" style="ellipse;whiteSpace=wrap;html=1;" vertex="1" parent="1">
          <mxGeometry x="-560" y="1000" width="120" height="60" as="geometry" />
        </mxCell>
        <mxCell id="nhN6npJ32NeFvKuplFAH-34" value="Nilai" style="rhombus;whiteSpace=wrap;html=1;" vertex="1" parent="1">
          <mxGeometry x="540" y="500" width="80" height="80" as="geometry" />
        </mxCell>
      </root>
    </mxGraphModel>
  </diagram>
</mxfile>
